<svg width="24" height="24" viewBox="0 0 24 24">
  <path
     d="M 12,3.0174267 A 8.9825613,8.9825613 0 0 0 3.0174263,11.999999 8.9825613,8.9825613 0 0 0 12,20.982573 8.9825613,8.9825613 0 0 0 20.982574,11.999999 8.9825613,8.9825613 0 0 0 12,3.0174267 Z m 0,0.649808 A 8.3326975,8.3326975 0 0 1 20.332766,11.999999 8.3326975,8.3326975 0 0 1 12,20.33217 8.3326975,8.3326975 0 0 1 3.6672343,11.999999 8.3326975,8.3326975 0 0 1 12,3.6672347 Z m -3.6420187,2.673548 v 8.6960153 h 2.9595127 c 1.11921,-0.0079 1.825049,-0.02774 2.117673,-0.05945 0.466638,-0.05143 0.859401,-0.188578 1.177741,-0.412001 0.318412,-0.223351 0.569416,-0.5216 0.753254,-0.895344 0.183838,-0.373744 0.275856,-0.758473 0.275856,-1.15396 7.2e-5,-0.502322 -0.142708,-0.939784 -0.427458,-1.311506 -0.284751,-0.371721 -0.691819,-0.634631 -1.221735,-0.788925 0.375767,-0.169897 0.673589,-0.4249183 0.892966,-0.7651453 a 2.0261922,2.0261922 0 0 0 0.329363,-1.121261 c -3.65e-4,-0.375694 -0.08931,-0.714701 -0.266938,-1.017221 -0.177626,-0.30252 -0.39978,-0.544613 -0.66705,-0.726501 -0.26698,-0.181888 -0.569768,-0.301734 -0.907829,-0.359089 -0.33806,-0.05735 -0.851024,-0.08561 -1.539207,-0.08561 z m 1.7556137,1.447057 1.008897,6.09e-4 c 0.826513,0 1.327144,0.01001 1.501158,0.02973 0.292335,0.03554 0.512211,0.137418 0.660509,0.305582 0.148299,0.168163 0.222945,0.386372 0.222945,0.655159 -7.2e-5,0.280777 -0.08662,0.50747 -0.258615,0.679534 -0.171992,0.172064 -0.408096,0.275988 -0.708666,0.311527 -0.166068,0.01979 -0.591103,0.02973 -1.275241,0.02973 h -1.150987 z m 0,3.4583123 h 1.417925 c 0.798558,0 1.317512,0.0414 1.557043,0.124254 0.239242,0.08336 0.422185,0.216367 0.54874,0.398327 0.126556,0.181959 0.189651,0.403091 0.189651,0.664075 0,0.308661 -0.08201,0.555293 -0.24613,0.738987 -0.164118,0.183693 -0.376338,0.299145 -0.637323,0.346603 -0.170041,0.03554 -0.571715,0.05291 -1.204494,0.05291 h -1.625412 z m -1.7556137,4.771601 v 1.464892 h 7.2840367 v -1.464892 z"
     fill="#000000"/>
</svg>