<svg width="94" height="94" viewBox="0 0 94 94" fill="none">
<path d="M47.093 93.4815C72.7129 93.4815 93.4819 72.7125 93.4819 47.0926C93.4819 21.4727 72.7129 0.703705 47.093 0.703705C21.4731 0.703705 0.704102 21.4727 0.704102 47.0926C0.704102 72.7125 21.4731 93.4815 47.093 93.4815Z" fill="black"/>
<path d="M14.7773 62.1852H79.407V67.3704H14.7773V62.1852Z" fill="#F3342F"/>
<path fill-rule="evenodd" clip-rule="evenodd" d="M18.7863 31.0741H22.49V33.6667H25.0826V31.0741H28.7863V33.892C32.3646 34.5187 34.2039 36.4044 34.2039 38.9594C34.2039 41.3504 32.3392 43.0159 29.684 43.4961V43.7005C32.6107 43.813 35.1479 45.7133 35.1479 48.7378C35.1479 51.66 32.8574 53.9033 28.7863 54.4594V57H25.0826V54.5926H22.49V57H18.7863V54.5926H15.8887V33.6667H18.7863V31.0741ZM21.7302 50.5157V45.5294H25.4476C27.6779 45.5294 29.0468 46.5513 29.0468 48.1554C29.0468 49.637 27.8666 50.5157 25.3413 50.5157H21.7302ZM21.7302 42.27V37.6822H25.0581C27.0052 37.6822 28.2444 38.5507 28.2444 39.9404C28.2444 41.4117 26.8753 42.27 24.9637 42.27H21.7302Z" fill="white"/>
<path d="M37.3701 55.1482H54.4001V50.7037H37.3701V55.1482ZM38.1109 37.3704H53.662V33.1111H38.1109V37.3704ZM39.5923 45.7037H52.1849V42H39.5923V45.7037Z" fill="white"/>
<path d="M67.0711 55.1482C74.4567 55.1482 79.0373 51.0054 79.0373 44.1189C79.0373 37.243 74.4567 33.1111 67.0593 33.1111H58.1113V55.1482H67.0711ZM63.97 50.6074V37.652H66.7634C70.9297 37.652 73.1667 39.3735 73.1667 44.1189C73.1667 48.8857 70.9297 50.6074 66.8463 50.6074H63.97Z" fill="white"/>
</svg>
