<svg width="500" height="500" fill="none">
    <path d="M510-10H-10v520h520V-10Z" fill="#FF0029"/>
    <path d="M383.6 188.2h-25v25h25v-25ZM333.6 188.2h-75v25h75v-25ZM258.6 113.2h-75v25h75v-25ZM383.6 288.2h-125v25h125v-25ZM233.6 313.2h-25v25h25v-25ZM158.6 113.2h-25v25h25v-25ZM258.6 263.2h-50v25h50v-25ZM183.6 263.2h-25v25h25v-25ZM333.6 338.2h-100v25h100v-25ZM233.6 363.2h-100v25h100v-25ZM258.6 213.2h-125v25h125v-25ZM233.6 163.2h-75v25h75v-25ZM408.6 238.2h-125v25h125v-25ZM333.6 138.2h-75v25h75v-25ZM183.6 313.2h-50v25h50v-25Z" fill="#000"/>
</svg>