<svg width="40" height="40" viewBox="0 0 40 40" fill="none" xmlns="http://www.w3.org/2000/svg">
    <circle cx="20" cy="20" r="20" fill="#F7600A"/>
    <path fill-rule="evenodd" clip-rule="evenodd" d="M23.506 7.294v-.807c0-.277-.23-.5-.507-.486-5.427.257-9.776 4.63-9.995 10.067.012.34.287.43.45.43h.82a.487.487 0 0 0 .485-.463 8.76 8.76 0 0 1 8.297-8.283c.341-.044.45-.23.45-.458zm-7.38 9.204h.784a.484.484 0 0 0 .481-.452 6.132 6.132 0 0 1 5.704-5.665.44.44 0 0 0 .412-.464V9.12a.488.488 0 0 0-.522-.486 7.884 7.884 0 0 0-7.345 7.344.488.488 0 0 0 .486.521zm10.428 7.004c.163 0 .439.09.45.43-.219 5.436-4.568 9.81-9.995 10.067a.486.486 0 0 1-.507-.486v-.807c0-.227.11-.414.45-.458a8.76 8.76 0 0 0 8.297-8.283.487.487 0 0 1 .486-.463h.82zm-2.672 0c.283 0 .504.24.486.52a7.884 7.884 0 0 1-7.345 7.345.488.488 0 0 1-.521-.486v-.799a.44.44 0 0 1 .412-.463 6.132 6.132 0 0 0 5.703-5.665.484.484 0 0 1 .48-.452h.785zm-2.636 0c.286 0 .513.245.485.53a5.257 5.257 0 0 1-4.7 4.698.485.485 0 0 1-.53-.484v-.803c0-.329.286-.447.425-.463a3.505 3.505 0 0 0 3.053-3.045.49.49 0 0 1 .483-.433h.784zM7.294 16.496c.227 0 .414.11.458.45a8.76 8.76 0 0 0 8.285 8.296.487.487 0 0 1 .463.486v.82c0 .162-.09.437-.43.449-5.438-.219-9.812-4.567-10.07-9.994a.486.486 0 0 1 .487-.507h.807zm2.624 0a.44.44 0 0 1 .464.412 6.132 6.132 0 0 0 5.665 5.702.484.484 0 0 1 .453.481v.785c0 .282-.24.504-.521.485a7.884 7.884 0 0 1-7.346-7.344.488.488 0 0 1 .486-.521h.799zm14.012-3.515c5.438.218 9.812 4.567 10.07 9.993a.486.486 0 0 1-.487.508h-.807c-.227 0-.414-.11-.458-.451a8.76 8.76 0 0 0-8.285-8.295.487.487 0 0 1-.463-.486v-.82c0-.162.09-.438.43-.45zm.091 2.635a7.884 7.884 0 0 1 7.346 7.345.488.488 0 0 1-.486.52h-.8a.44.44 0 0 1-.463-.411 6.132 6.132 0 0 0-5.665-5.703.484.484 0 0 1-.453-.48v-.785c0-.282.24-.504.521-.486zm.009 2.637a5.257 5.257 0 0 1 4.7 4.699.485.485 0 0 1-.485.53h-.803c-.329 0-.447-.285-.463-.424a3.505 3.505 0 0 0-3.045-3.053.49.49 0 0 1-.434-.484v-.783c0-.286.246-.513.53-.485zm-11.472-1.757c.329 0 .447.285.463.424a3.505 3.505 0 0 0 3.045 3.053.49.49 0 0 1 .434.483v.784a.485.485 0 0 1-.53.485 5.257 5.257 0 0 1-4.7-4.7.485.485 0 0 1 .485-.529h.803zm10.948-4.742v.803c0 .328-.285.447-.424.463a3.505 3.505 0 0 0-3.053 3.045.49.49 0 0 1-.483.433h-.784a.485.485 0 0 1-.485-.53 5.257 5.257 0 0 1 4.7-4.698.485.485 0 0 1 .53.484z" fill="#fff"/>
</svg>
