
<svg xmlns="http://www.w3.org/2000/svg" width="99" height="99" viewBox="0 0 99 99">
    <g fill="none" fill-rule="evenodd">
        <path fill="#CC8E58" d="M96.525 1.454l-5.04-1.23L84.3 3.775l-12.107 8.978-6.112-1.678-6.62-1.063-9.96 1.063-9.96-1.063-6.62 1.063-6.112 1.678L14.7 3.775 7.514.224l-5.039 1.23L0 4.95v13.34l1.76 5.565.178 5.565 3.907 7.3.268 7.69-1.79 8.67-.864 10.599 4.413 6.74 6.889 5.509 1.52 1.203 5.487 10.71 8.528 5.678 3.161 2.125L49.5 98.776l16.043-3.132 3.16-2.125 8.529-5.677 5.487-10.711 1.52-1.203 6.889-5.51 4.413-6.74-.865-10.598-1.789-8.67.268-7.69 3.907-7.3.179-5.565L99 18.29V4.95z"/>
        <path fill="#CC8E58" d="M69.986 31.154l-4.682-.727-1.968-7.55L49.5 37.222l-9.96-10.32-3.876-4.027-1.968 7.551-4.682.727-3.697 3.664 1.968 5.23 1.103-2.797 5.248-1.734 3.578 4.67.09 3.244-3.847 11.802-1.908 9.285 10.02-9.844 5.217-1.594L49.5 37.223l2.714 15.857 5.218 1.594 10.02 9.844-1.91-9.285-3.846-11.802.09-3.244 3.578-4.67 5.248 1.734 1.103 2.796 1.968-5.23z"/>
        <path fill="#2D2113" d="M21.5 14.486l-7.157-7.55L6.71 4.782l-2.982.643-1.163 4.67v8.363L6.65 25.28l7.097 4.14 7.037-5.734z"/>
        <path fill="#2C1800" d="M49.5 35.517l-1.819-16.584 1.819.28z"/>
        <path fill="#A8633A" d="M33.636 12.417l-6.828.336L14.7 3.775 7.514.224l-5.039 1.23L0 4.95v8.446l2.564 1.762v-5.062l1.163-4.67 2.982-.644 7.634 2.154 7.157 7.55-.716 9.201-7.037 5.733-4.622 14.011 8.647 3.16 6.978-7.047 2.535.503-1.968-5.23 2.534-2.516 1.163-1.147 4.682-.727 1.968-7.55 4.562-.336 3.847-3.608 3.22 4.419 2.207 13.87V14.487z"/>
        <path fill="#CC8E58" d="M7.872 70.419l-.954-10.432 5.129-11.186 5.725-2.21-8.647-3.16 21.798-28.273-10.139 8.53-7.037 5.732-7.902 7.3-1.521 16.36-.865 10.599z"/>
        <path fill="#A8633A" d="M27.97 29.756l7.694-6.88-1.968 7.551-4.682.727-1.55 1.538z"/>
        <path fill="#EBE8DB" d="M33.457 78.081l-5.487-4.446-4.622-15.41 2.505-7.97-1.103-6.824 8.707 11.802 6.083-2.573 7.246.42-.596 3.887-5.04 2.237-1.61 3.748.805 3.3 1.462 1.538-3.579 8.306h-4.115l-3.19-4.027v2.908z"/>
        <path fill="#5D2900" d="M20.784 23.687l.716-9.2 5.785 1.817 3.638-1.146z"/>
        <path fill="#5D2900" d="M19.92 15.633l.864 8.054.716-9.2-3.996-4.112z"/>
        <path fill="#A8633A" d="M5.845 36.72l-3.907-7.3L0 18.29v-4.894l2.564 1.762v3.3L6.65 25.28l7.097 4.14zM27.285 40.047v-3.97l7.276-3.133-.925 2.573-5.248 1.734z"/>
        <path fill="#D6B795" d="M33.845 44.41l-4.324-1.174-2.236-3.189-2.535-.503-1.402 1.398 1.402 2.49 1.431 1.929 7.276 9.872 3.847-11.802z"/>
        <path fill="#DBD5C3" d="M38.884 85.548l-1.998-6.572-3.429-.895-5.487-4.446-1.64-5.426-6.828 7.887-3.22 1.035 5.486 10.71 8.528 5.678 6.59-3.133 6.292-2.992z"/>
        <path fill="#2D2113" d="M77.5 14.486l7.157-7.55 7.634-2.154 2.982.643 1.163 4.67v8.363L92.35 25.28l-7.097 4.14-7.037-5.734z"/>
        <path fill="#2C1800" d="M61.786 43.431v-3.244l3.578-4.67 5.248 1.734 1.103 2.796-2.236 3.189-4.324 1.174z"/>
        <path fill="#4D2F00" d="M66.288 41.138c1.64 0 3.012-1.063 3.37-2.489.03.14.03.28.03.448a3.326 3.326 0 0 1-3.34 3.328 3.326 3.326 0 0 1-3.34-3.412c.507 1.23 1.79 2.125 3.28 2.125z"/>
        <path fill="#2C1800" d="M66.288 41.138c-1.49 0-2.773-.895-3.28-2.125.06-1.79 1.52-3.244 3.34-3.244 1.7 0 3.101 1.258 3.31 2.88-.358 1.426-1.73 2.49-3.37 2.49z"/>
        <path fill="#ECD9CB" d="M67.75 39.18l1.729-.503s-.656-1.678-3.25-1.314c0 .028 1.312 1.09 1.52 1.818z"/>
        <path fill="#2C1800" d="M49.5 35.517l1.819-16.584-1.819.28z"/>
        <path fill="#262626" d="M57.85 59.204l-5.04-2.237h-6.62l-5.04 2.237-1.61 3.748.805 3.3 4.175 4.418 4.98 1.399 4.98-1.399 4.175-4.418.805-3.3z"/>
        <path fill="#000" d="M51.707 65.44l1.759.56h2.266l1.67-2.769-3.22-2.153-4.682-.923-4.682.923-3.22 2.153L43.268 66h2.266l1.76-.56-1.521 1.846-3.966.504 2.713 2.88 4.98 1.399 4.98-1.399 2.713-2.88-3.966-.504zM64.887 76.096h-4.115L49.5 73.719l-11.272 2.377h-4.115l-3.19-4.027v2.908l2.534 3.104 4.771 1.259 6.292-2.74 4.98 1.37 4.98-1.37 6.292 2.74 4.77-1.259 2.535-3.104V72.07z"/>
        <path fill="#918A85" d="M60.772 79.34L54.48 76.6l-4.98 1.37-4.98-1.37-6.292 2.74 6.292 3.188 4.98.923 4.98-.923z"/>
        <path fill="#5C524A" d="M60.772 76.096l-3.579-8.306-2.713 2.88-4.98 1.399-4.98-1.399-2.713-2.88-3.579 8.306L49.5 73.719z"/>
        <path fill="#EBE8DB" d="M60.772 79.34l-6.292 3.188-4.98.923-4.98-.923-6.292-3.188-1.342-.364 1.998 6.572 6.65 2.88 3.966.98 3.966-.98 6.65-2.88 1.998-6.572z"/>
        <path fill="#A8633A" d="M65.364 12.417l6.828.336L84.3 3.775 91.486.224l5.039 1.23L99 4.95v8.446l-2.564 1.762v-5.062l-1.163-4.67-2.982-.644-7.634 2.154-7.157 7.55.716 9.201 7.037 5.733 4.622 14.011-8.647 3.16-6.978-7.047-2.535.503 1.968-5.23-2.534-2.516-1.163-1.147-4.682-.727-1.968-7.55-4.562-.336-3.847-3.608-3.22 4.419-2.207 13.87V14.487z"/>
        <path fill="#CC8E58" d="M91.128 70.419l.954-10.432-5.129-11.186-5.725-2.21 8.647-3.16-21.798-28.273 10.139 8.53 7.037 5.732 7.902 7.3 1.521 16.36.865 10.599z"/>
        <path fill="#A8633A" d="M72.192 12.753l-6.112-1.678-6.62-1.063-9.96 1.063-9.96-1.063-6.62 1.063-6.112 1.678 6.828-.336 15.864 2.07 15.864-2.07zM71.03 29.756l-7.694-6.88 1.968 7.551 4.682.727 1.55 1.538z"/>
        <path fill="#EBE8DB" d="M65.543 78.081l5.487-4.446 4.622-15.41-2.505-7.97 1.103-6.824-8.707 11.802-6.083-2.573-7.246.42.596 3.887 5.04 2.237 1.61 3.748-.805 3.3-1.462 1.538 3.579 8.306h4.115l3.19-4.027v2.908z"/>
        <path fill="#A8633A" d="M49.5 37.223l13.836-14.347-4.562-.335-3.847-3.608.716-2.88-6.143-1.567-6.143 1.567.716 2.88-3.847 3.608-4.562.335L49.5 37.223z"/>
        <path fill="#5D2900" d="M78.216 23.687l-.716-9.2-5.785 1.817-3.638-1.146zM79.08 15.633l-.864 8.054-.716-9.2 3.996-4.112z"/>
        <path fill="#A8633A" d="M93.155 36.72l3.907-7.3L99 18.29v-4.894l-2.564 1.762v3.3L92.35 25.28l-7.097 4.14zM71.715 40.047v-3.97l-7.276-3.133.925 2.573 5.248 1.734z"/>
        <path fill="#CC8E58" d="M57.342 40.69l2.118-13.787-9.96 10.32z"/>
        <path fill="#807664" d="M68.704 93.519l-12.882-6.125-2.356 1.035-3.966.979-3.966-.98-2.356-1.034-12.882 6.125 3.161 2.125L49.5 98.776l16.043-3.132z"/>
        <g fill="#DBD5C3">
            <path d="M20.098 44.242l-2.326 2.35-5.725 2.209-5.129 11.186.954 10.432 6.889 5.509v-7.103l2.355-6.349 4.712-8.222-.328-11.466zM86.953 48.8l-5.725-2.208-2.326-2.35-1.402-1.454-.328 11.466 4.712 8.222 2.355 6.349v7.103l6.889-5.51.954-10.43z"/>
        </g>
        <path fill="#D6B795" d="M74.25 39.544l-2.535.503-2.236 3.189-4.324 1.174-3.459-.979 3.847 11.802 7.276-9.872 1.431-1.93 1.402-2.489z"/>
        <path fill="#CFC7AF" d="M77.5 42.788l-1.848-1.846-1.402 2.49-1.103 6.823 2.505 7.97-2.982 9.984 6.828 7.887 3.22 1.035 6.322-5.062z"/>
        <path fill="#DBD5C3" d="M79.498 76.096l-6.828-7.887-1.64 5.426-5.487 4.446-3.43.895-1.997 6.572-4.294 1.846 6.292 2.992 6.59 3.133 8.528-5.677 5.487-10.711z"/>
        <path fill="#CFC7AF" d="M21.5 42.788l1.848-1.846 1.402 2.49 1.103 6.823-2.505 7.97 2.982 9.984-6.828 7.887-3.22 1.035-6.322-5.062z"/>
        <g>
            <path fill="#2C1800" d="M37.214 43.431v-3.244l-3.578-4.67-5.248 1.734-1.103 2.796 2.236 3.189 4.324 1.174z"/>
            <path fill="#4D2F00" d="M32.712 41.138c-1.64 0-3.012-1.063-3.37-2.489-.03.14-.03.28-.03.448a3.326 3.326 0 0 0 3.34 3.328 3.326 3.326 0 0 0 3.34-3.328v-.084c-.507 1.23-1.79 2.125-3.28 2.125z"/>
            <path fill="#2C1800" d="M32.712 41.138c1.49 0 2.773-.895 3.28-2.125-.06-1.79-1.52-3.244-3.34-3.244-1.7 0-3.101 1.258-3.31 2.88.358 1.426 1.73 2.49 3.37 2.49z"/>
            <path fill="#ECD9CB" d="M31.25 39.18l-1.729-.503s.656-1.678 3.25-1.314c0 .028-1.312 1.09-1.52 1.818z"/>
        </g>
        <path fill="#D9AA8B" d="M49.5 37.223l-3.31 19.744h6.62z"/>
        <g fill="#CC8E58">
            <path d="M85.253 79.843v-.391h1.342v.391h-.447v1.287H85.7v-1.287h-.448zM88.444 79.452h.15v1.678h-.478v-.755l-.388.363h-.06l-.387-.363v.755h-.477v-1.678h.179l.686.727.775-.727z"/>
            <path fill-rule="nonzero" d="M86.923 83.031c-1.61 0-2.922-1.23-2.922-2.74 0-1.51 1.312-2.741 2.922-2.741s2.922 1.23 2.922 2.74c0 1.51-1.312 2.741-2.922 2.741zm0-5.173c-1.431 0-2.564 1.09-2.564 2.405 0 1.342 1.163 2.405 2.564 2.405 1.432 0 2.565-1.09 2.565-2.405 0-1.315-1.133-2.405-2.565-2.405z"/>
        </g>
    </g>
</svg>
