<svg width="76" height="77" viewBox="0 0 76 77" fill="none">
<path d="M38 76.7363C58.9868 76.7363 76 59.7231 76 38.7363C76 17.7495 58.9868 0.736328 38 0.736328C17.0132 0.736328 0 17.7495 0 38.7363C0 59.7231 17.0132 76.7363 38 76.7363Z" fill="#8150E6/>
<path d="M74.3754 48.9963L47.5854 22.5863L32.3854 19.7363L23.4554 53.5563L45.8754 75.7863C59.7454 72.7463 70.5754 62.4863 74.3754 48.9963Z" fill="#3C176B"/>
<path d="M34.8554 50.516V29.616H40.1754C41.8854 29.616 43.5954 29.806 45.1154 30.376C46.6354 30.756 47.9654 31.516 48.9154 32.466C49.1054 32.656 49.2954 32.656 49.2954 32.846C49.2954 29.996 48.3454 27.146 46.8254 24.676C45.3054 24.296 43.5954 23.916 41.8854 23.916H29.1554V50.516C31.0554 50.516 32.9554 50.706 34.8554 50.516Z" fill="#6B42BD"/>
<path d="M33.3354 47.6668C35.0454 47.6668 36.7554 47.4768 38.4654 46.9068C39.9854 46.5268 41.5054 45.7668 42.6454 44.8168C43.7854 43.8668 44.7354 42.5368 45.4954 41.0168C46.2554 39.4968 46.4454 37.5968 46.4454 35.5068C46.4454 33.4168 46.0654 31.7068 45.4954 30.1868C44.9254 28.6668 43.9754 27.3368 43.0254 26.3868C41.8854 25.4368 40.7454 24.6768 39.2254 24.2968C37.7054 23.9168 36.1854 23.5368 34.2854 23.5368H28.9654V47.4768H33.3354V47.6668ZM23.2654 18.2168H35.9954C38.0854 18.2168 40.1754 18.5968 42.2654 19.3568C44.1654 20.1168 46.0654 21.2568 47.5854 22.5868C49.1054 24.1068 50.2454 25.8168 51.1954 28.0968C52.1454 30.3768 52.5254 32.8468 52.5254 35.6968C52.5254 38.7368 51.9554 41.3968 51.0054 43.6768C49.8654 45.9568 48.5354 47.6668 47.0154 49.1868C45.3054 50.7068 43.5954 51.6568 41.5054 52.4168C39.4154 53.1768 37.5154 53.5568 35.6154 53.5568H23.4554V18.2168H23.2654Z" fill="white"/>
</svg>
