<svg width="24" height="24" viewBox="0 0 24 24" fill="none" xmlns="http://www.w3.org/2000/svg">
<path d="M3 11.9999C3 16.9705 7.0295 21 12.0001 21C16.9706 21 21.0002 16.9705 21.0002 11.9999C21.0002 7.02935 16.9706 3 12.0001 3C7.0295 3 3 7.02935 3 11.9999Z" fill="url(#paint0_radial)"/>
<path d="M11.9951 9.99561C9.31299 9.99561 7.13867 9.56727 7.13867 9.03878C7.13867 8.51029 9.31299 8.08181 11.9951 8.08181C14.6771 8.08181 16.8514 8.51029 16.8514 9.03878C16.8514 9.56727 14.6771 9.99561 11.9951 9.99561" fill="#010A24"/>
<path d="M11.9951 12.9114C9.31299 12.9114 7.13867 12.483 7.13867 11.9546C7.13867 11.4261 9.31299 10.9976 11.9951 10.9976C14.6771 10.9976 16.8514 11.4261 16.8514 11.9546C16.8514 12.483 14.6771 12.9114 11.9951 12.9114" fill="#010A24"/>
<path d="M11.9951 15.9204C9.31299 15.9204 7.13867 15.4921 7.13867 14.9636C7.13867 14.4351 9.31299 14.0066 11.9951 14.0066C14.6771 14.0066 16.8514 14.4351 16.8514 14.9636C16.8514 15.4921 14.6771 15.9204 11.9951 15.9204" fill="#010A24"/>
<defs>
<radialGradient id="paint0_radial" cx="0" cy="0" r="1" gradientUnits="userSpaceOnUse" gradientTransform="translate(6.77889 4.62294) rotate(55.1244) scale(17.7188)">
<stop stop-color="#00D5FF"/>
<stop offset="0.088894" stop-color="#00D5FF"/>
<stop offset="0.5" stop-color="#3A4AFF"/>
<stop offset="1" stop-color="#7E20FF"/>
</radialGradient>
</defs>
</svg>
