<svg width="97" height="96" viewBox="0 0 97 96" fill="none">
<path fill-rule="evenodd" clip-rule="evenodd" d="M48.8867 95.799C75.3966 95.799 96.8867 74.3944 96.8867 47.991C96.8867 21.5873 75.3966 0.182983 48.8867 0.182983C22.3771 0.182983 0.886719 21.5873 0.886719 47.991C0.886719 74.3944 22.3771 95.799 48.8867 95.799ZM48.8867 79.3872C68.2745 79.3872 83.9912 63.773 83.9912 44.5115C83.9912 25.25 68.2745 17.3082 48.8867 17.3082C29.4991 17.3082 13.7823 25.25 13.7823 44.5115C13.7823 63.773 29.4991 79.3872 48.8867 79.3872Z" fill="#020203"/>
<path fill-rule="evenodd" clip-rule="evenodd" d="M28.1091 50.1314C30.1669 50.1314 32.0403 49.3457 33.4438 48.0597C34.208 49.4202 35.0376 50.8618 35.9009 52.3052C37.7349 55.3726 39.7684 58.5295 41.6799 60.9494C42.6295 62.1517 43.6203 63.2638 44.6041 64.1017C45.457 64.8282 46.8443 65.8293 48.527 65.8293C50.1951 65.8293 51.5906 64.8421 52.4542 64.1244C53.4538 63.2938 54.4713 62.189 55.4544 60.9894C57.4324 58.5756 59.5559 55.4233 61.4797 52.3574C62.4286 50.8453 63.3406 49.3354 64.1762 47.918C65.5951 49.2881 67.5293 50.1314 69.6612 50.1314C74.0139 50.1314 77.5421 46.6174 77.5421 42.2825C77.5421 37.9474 74.0139 34.4333 69.6612 34.4333C66.1146 34.4333 63.1148 36.7671 62.126 39.9769C61.9313 40.3271 61.7198 40.7058 61.4928 41.1082C60.2241 43.3596 58.4903 46.3505 56.6194 49.3323C54.7374 52.3313 52.7637 55.2447 51.0142 57.3798C50.1333 58.4546 49.3795 59.2449 48.7824 59.7414C48.6898 59.8182 48.6088 59.8815 48.5385 59.9338C48.4771 59.8865 48.4076 59.8305 48.3293 59.7636C47.7556 59.2752 47.031 58.4918 46.1842 57.4197C44.5023 55.2908 42.6177 52.3824 40.8251 49.3845C39.0432 46.4047 37.3988 43.4153 36.1971 41.165C36.0345 40.8605 35.8802 40.5698 35.7349 40.2949C34.8514 36.9224 31.7721 34.4333 28.1091 34.4333C23.7568 34.4333 20.2285 37.9474 20.2285 42.2825C20.2285 46.6174 23.7568 50.1314 28.1091 50.1314Z" fill="#020203"/>
</svg>
