<svg id="Group_1831" data-name="Group 1831" xmlns="http://www.w3.org/2000/svg" width="145" height="145" viewBox="0 0 145 145">
  <circle id="Ellipse_73" data-name="Ellipse 73" cx="72.368" cy="72.368" r="72.368" transform="translate(0 0)" fill="#fff"/>
  <path id="Ellipse_73_-_Outline" data-name="Ellipse 73 - Outline" d="M72.5,6.042a66.458,66.458,0,1,0,46.993,19.465A66.458,66.458,0,0,0,72.5,6.042M72.5,0A72.5,72.5,0,1,1,0,72.5,72.5,72.5,0,0,1,72.5,0Z" transform="translate(0 0)" fill="#d80027"/>
  <circle id="Ellipse_78" data-name="Ellipse 78" cx="60.214" cy="60.214" r="60.214" transform="translate(12.153 12.153)" fill="#d80027"/>
  <g id="Group_21" data-name="Group 21" transform="translate(29.284 29.282)">
    <path id="Path_2404" data-name="Path 2404" d="M-15992.56-10618.259h-27.189v-86.428h27.189Z" transform="translate(16049.371 10704.687)" fill="#fff"/>
    <path id="Path_2405" data-name="Path 2405" d="M27.188,86.432H0V0H27.188Z" transform="translate(86.432 29.637) rotate(90)" fill="#fff"/>
  </g>
</svg>
