<svg width="24" height="24" viewBox="0 0 24 24" fill="none" xmlns="http://www.w3.org/2000/svg">
   <polygon points="9.76516411 14.225958 14.2138117 14.225958 14.2138117 9.77379021 9.76516411 9.77379021" fill="#F9BE00"></polygon>
    <path d="M7.63003968,18.5303748 L16.6227977,18.5303748 C17.6642114,18.5303748 18.5114291,17.6826126 18.5114291,16.6403748 L18.5114291,7.6405007 L16.4415565,7.6405007 L16.4415565,16.4588643 L7.63003968,16.4588643 L7.63003968,18.5303748 Z" fill="#121F38"></path>
    <path d="M16.3487726,7.54103497 L16.3487726,5.4693986 L7.35601456,5.4693986 C6.31472666,5.4693986 5.46738319,6.31728671 5.46738319,7.35952448 L5.46738319,16.3592727 L7.53725576,16.3592727 L7.53725576,7.54103497 L16.3487726,7.54103497 Z" fill="#121F38"></path>
    <polygon points="18.5114039 5.4693986 20.97885 5.4693986 20.97885 3 18.5114039 3" fill="#08B8DE"></polygon>
    <polygon points="3 20.9998741 5.46744608 20.9998741 5.46744608 18.5303497 3 18.5303497" fill="#E40065"></polygon>
</svg>