<svg width="130" height="110" viewBox="0 0 130 110" fill="none" xmlns="http://www.w3.org/2000/svg">
<path d="M98.0996 33.6047C95.7008 32.2093 92.5828 32.2093 89.9448 33.6047L71.2359 44.3024L58.5238 51.2793L39.8155 61.9768C37.4169 63.3721 34.2989 63.3721 31.6605 61.9768L16.7897 53.6045C14.3911 52.2092 12.7122 49.6513 12.7122 46.8605V30.3489C12.7122 27.5582 14.1513 25 16.7897 23.6047L31.4206 15.4651C33.8192 14.0698 36.9372 14.0698 39.5756 15.4651L54.2067 23.6047C56.605 25 58.2841 27.5582 58.2841 30.3489V41.0466L70.9962 33.8373V23.1396C70.9962 20.3488 69.5573 17.7907 66.9188 16.3954L39.8155 1.04651C37.4169 -0.348838 34.2989 -0.348838 31.6605 1.04651L4.07749 16.3954C1.43911 17.7907 0 20.3488 0 23.1396V54.0699C0 56.8605 1.43911 59.4189 4.07749 60.8142L31.6605 76.163C34.059 77.5583 37.1771 77.5583 39.8155 76.163L58.5238 65.6977L71.2359 58.4885L89.9448 48.0233C92.3431 46.628 95.461 46.628 98.0996 48.0233L112.731 56.1628C115.129 57.5581 116.808 60.1165 116.808 62.9071V79.4185C116.808 82.2096 115.369 84.7675 112.731 86.1628L98.0996 94.5351C95.7008 95.9304 92.5828 95.9304 89.9448 94.5351L75.3138 86.3955C72.915 85.0002 71.2359 82.4418 71.2359 79.6512V68.9538L58.5238 76.163V86.8604C58.5238 89.651 59.9632 92.2094 62.6012 93.6047L90.1845 108.954C92.5828 110.349 95.7008 110.349 98.3393 108.954L125.923 93.6047C128.321 92.2094 130 89.651 130 86.8604V55.9301C130 53.1395 128.561 50.5816 125.923 49.1863L98.0996 33.6047Z" fill="#8247E5"/>
</svg>
