<svg width="24" height="24" viewBox="0 0 200 200" fill="none">
<path d="M168.785 200C159.653 200 151.092 196.027 145.187 189.2C131.248 196.268 115.706 200 100.011 200C44.8688 200 0 155.131 0 100.011C0 44.8908 44.8688 0 100.011 0C155.131 0 199.978 45.0005 200 100.296V168.785C200 185.995 185.995 200 168.785 200ZM147.821 177.785L150.06 181.166C154.231 187.466 161.234 191.219 168.763 191.219C181.144 191.219 191.197 181.144 191.197 168.785V100.34C191.197 49.8518 150.28 8.80255 99.989 8.80255C49.6982 8.7806 8.78059 49.6982 8.78059 100.011C8.78059 150.324 49.6982 191.241 100.011 191.241C115.487 191.241 130.809 187.268 144.287 179.761L147.821 177.785Z" fill="black"/>
<path fill-rule="evenodd" clip-rule="evenodd" d="M96.0817 177.192C138.689 178.839 174.58 145.56 176.183 102.887C176.336 99.1987 176.227 95.6206 175.853 92.0425C176.007 96.3669 174.844 100.911 172.166 104.16C166.129 111.47 155.746 109.713 154.034 102.184C153.134 98.0791 154.89 93.0962 158.402 90.7473C138.931 87.6522 133.399 106.443 123.214 116.431C112.238 127.231 95.2256 123.323 92.328 110.504C90.7255 103.391 93.7109 94.7425 99.7476 90.5278C89.606 88.179 81.879 91.1644 74.7448 98.3206C67.9618 105.06 63.1105 114.016 54.9007 118.823C47.1737 123.411 36.4395 123.85 29.5686 117.374C24.4979 112.611 22.1051 104.972 21.8856 96.9157C20.2612 139.633 53.4738 175.524 96.0817 177.192Z" fill="#901EF2"/>
<path d="M92.0865 67.6324C131.116 67.369 125.738 19.6684 91.6036 22.9173C53.7373 26.5393 23.4003 57.7982 21.9076 96.9596C22.1271 105.016 24.5198 112.655 29.5906 117.418C36.4614 123.872 47.1957 123.455 54.9226 118.867C58.0726 117.055 60.7012 114.607 63.1344 111.919C63.2965 111.746 63.4568 111.567 63.6154 111.382C63.4559 111.562 63.2956 111.741 63.1344 111.919C55.7156 119.849 44.8333 115.622 44.2103 104.752C43.6176 93.9084 49.5884 82.9546 58.1934 76.5447C67.5008 69.5422 79.662 67.6763 92.0865 67.6324Z" fill="#71E7FF"/>
<path d="M141.368 42.1031C148.568 42.3665 154.165 48.4031 153.858 55.6252C153.595 62.7813 147.558 68.4009 140.424 68.1156C133.224 67.7863 127.67 61.7496 127.955 54.5934C128.197 47.3714 134.211 41.8177 141.368 42.1031Z" fill="#71E7FF"/>
<path d="M168.192 74.8326C168.346 70.5521 165.031 66.974 160.773 66.8203C156.514 66.6667 152.892 69.9813 152.716 74.2399C152.563 78.5205 155.877 82.0985 160.136 82.3181C164.395 82.4717 168.039 79.1131 168.192 74.8326Z" fill="#71E7FF"/>
</svg>
