<svg width="76" height="76" viewBox="0 0 76 76" fill="none">
<path fill-rule="evenodd" clip-rule="evenodd" d="M0 38C0 17.0037 17.0037 0 38 0C58.9963 0 76 17.0037 76 38C76 58.9963 58.9963 76 38 76C17.0037 76 0 58.9963 0 38Z" fill="#6CD5C8"/>
<path fill-rule="evenodd" clip-rule="evenodd" d="M14.5109 36.2363C14.5109 36.2363 14.5109 42.1339 38 42.1339C61.4891 42.1339 61.4891 36.2363 61.4891 36.2363C61.4891 42.1339 55.936 54.5371 52.5109 56.6651C49.0859 58.7729 50.3829 49.5921 46.9579 49.815C43.5328 50.0379 41.4048 63.5355 37.9797 63.5355C34.5547 63.5355 32.4267 49.6123 29.0016 49.8353C25.5765 50.0582 26.8939 58.8134 23.4485 56.6854C20.064 54.5574 14.5109 42.1542 14.5109 36.2363Z" fill="white"/>
<path fill-rule="evenodd" clip-rule="evenodd" d="M20.064 36.2371C20.064 34.332 28.0896 32.7715 38 32.7715C47.9104 32.7715 55.936 34.332 55.936 36.2371C55.936 38.1422 46.9578 39.7027 38 39.7027C29.0218 39.7027 20.064 38.1624 20.064 36.2371Z" fill="white"/>
<path fill-rule="evenodd" clip-rule="evenodd" d="M46.9781 19.6789C46.9781 17.1861 48.9845 15.1797 51.4773 15.1797C53.9701 15.1797 55.9765 17.1861 55.9765 19.6789C55.9765 22.1717 53.9701 24.1781 51.4773 24.1781C48.9845 24.1781 46.9781 22.1514 46.9781 19.6789Z" fill="white"/>
</svg>
