<?xml version="1.0" encoding="utf-8"?>
<!-- Generator: Adobe Illustrator 25.4.1, SVG Export Plug-In . SVG Version: 6.00 Build 0)  -->
<svg version="1.1" id="Layer_1" xmlns="http://www.w3.org/2000/svg" xmlns:xlink="http://www.w3.org/1999/xlink" x="0px" y="0px"
	 viewBox="0 0 100 100" style="enable-background:new 0 0 100 100;" xml:space="preserve">
<path fill="#708b96" d="M49.9,93.8c24.1,0,43.6-19.5,43.6-43.6c0-5.1-0.9-9.9-2.4-14.4V21.5c5.6,8.1,8.9,17.9,8.9,28.5c0,27.6-22.4,50-50,50
	S0,77.6,0,50c0-10.6,3.3-20.5,9-28.6v13.8c-1.7,4.7-2.7,9.7-2.7,15C6.3,74.2,25.9,93.8,49.9,93.8z M11.1,50
	c0-21.5,17.4-38.9,38.9-38.9S88.9,28.5,88.9,50S71.5,88.9,50,88.9S11.1,71.5,11.1,50z M53.7,65.5L53.7,65.5v1.7h13.4v-4.8h-6.6
	c4-3,6.5-7.7,6.5-13C67,40.3,59.4,33,50,33s-17,7.4-17,16.5c0,5.3,2.6,9.9,6.5,13h-6.6v4.8h13.4v-1.7v-4.8c-4.9-1.5-8.4-6-8.4-11.3
	c0-6.5,5.4-11.8,12.1-11.8S62.1,43,62.1,49.5c0,5.3-3.5,9.7-8.4,11.3C53.7,60.8,53.7,65.5,53.7,65.5z"/>
</svg>
