<?xml version="1.0" encoding="utf-8"?>
<!-- Generator: Adobe Illustrator 25.4.1, SVG Export Plug-In . SVG Version: 6.00 Build 0)  -->
<svg version="1.1" id="Layer_1" xmlns="http://www.w3.org/2000/svg" xmlns:xlink="http://www.w3.org/1999/xlink" x="0px" y="0px"
	 viewBox="0 0 1000 1000" style="enable-background:new 0 0 1000 1000;" xml:space="preserve">
<style type="text/css">
	.st0{fill:#D1CEAA;}
	.st1{fill:#708B96;}
	.st2{fill-rule:evenodd;clip-rule:evenodd;fill:#FFFFFF;}
</style>
<path class="st0" d="M499.5,937.6c240.8,0,436-195.2,436-436c0-50.6-8.6-99.1-24.4-144.3V215.2c56.1,80.8,89,179,89,284.8
	c0,276.1-223.9,500-500,500S0,776.1,0,500c0-106.5,33.3-205.2,90-286.3v137.8c-17.2,46.8-26.5,97.4-26.5,150.1
	C63.5,742.4,258.7,937.6,499.5,937.6z"/>
<path class="st1" d="M111,500c0-214.8,174.2-389,389-389s389,174.2,389,389S714.8,889,500,889S111,714.8,111,500z"/>
<path class="st2" d="M537.3,654.7v17.2h133.8v-48.2h-66.1c39.8-30.1,65.3-76.9,65.3-129.5c0-90.9-76.3-164.5-170.4-164.5
	c-94.1,0-170.4,73.7-170.4,164.5c0,52.6,25.5,99.4,65.3,129.5h-66.1v48.2h133.8v-0.8v-16.4v-47.6c-48.8-15.3-84-59.9-84-112.6
	c0-65.3,54.3-118.3,121.4-118.3c67,0,121.4,52.9,121.4,118.3c0,52.6-35.3,97.2-84,112.6V654.7z"/>
</svg>
