<svg xmlns="http://www.w3.org/2000/svg" xmlns:xlink="http://www.w3.org/1999/xlink" width="16px" height="14px" viewBox="0 0 16 14">
  <path fill="currentColor" d="M13.74176,1.76931167 L11.8152,2.74961567 L2.512104,7.48215967 C2.48064,7.24247967 2.464816,7.00111967 2.464712,6.75941567 C2.465984,5.79512767 2.71948,4.84789567 3.20008,4.01155167 C3.680688,3.17521567 4.37172,2.47878367 5.204744,1.99124767 C6.037768,1.50370367 6.983864,1.24197567 7.949336,1.23198367 C8.9148,1.22199167 9.86616,1.46407967 10.70912,1.93427167 L11.81184,1.37312767 L11.97632,1.28929567 C10.96616,0.55703167 9.77296,0.11797567 8.52856,0.0206396701 C7.284144,-0.0766883299 6.037032,0.17149567 4.92504,0.73776767 C3.813048,1.30403967 2.879472,2.16635167 2.227496,3.22939967 C1.57552,4.29244767 1.230536,5.51482367 1.230664,6.76144767 C1.230664,6.93359967 1.237208,7.10511967 1.250296,7.27591967 C1.268624,7.51783967 1.214904,7.75975967 1.095904,7.97127967 C0.976896,8.18271967 0.7979152,8.35431967 0.5814856,8.46447967 L0,8.76055967 L0,10.1418397 L1.711968,9.27031967 L2.266376,8.98775967 L2.812656,8.70991967 L12.62008,3.71911167 L13.72208,3.15864767 L16,1.99917567 L16,0.61863167 L13.74176,1.76931167 Z M16,3.38107167 L3.369776,9.80375967 L2.267728,10.3655997 L0,11.5196797 L0,12.8995197 L2.25216,11.7535997 L4.178712,10.7732797 L13.49128,6.03399167 C13.5228,6.27519967 13.53856,6.51819167 13.53864,6.76144767 C13.53808,7.72687967 13.28464,8.67527967 12.8036,9.51263967 C12.32248,10.3499997 11.63048,11.0471197 10.79632,11.5348797 C9.96208,12.0225597 9.01464,12.2838397 8.048,12.2927997 C7.081448,12.3017597 6.129312,12.0580797 5.286176,11.5859197 L5.21848,11.6217597 L4.023016,12.2302397 C5.032952,12.9624797 6.22592,13.4016797 7.47012,13.4992797 C8.71432,13.5967997 9.96128,13.3489597 11.07328,12.7830397 C12.18528,12.2171997 13.11904,11.3552797 13.77128,10.2926397 C14.42352,9.22991967 14.76896,8.00791967 14.76936,6.76144767 C14.76936,6.58769567 14.76256,6.41394367 14.74968,6.24222367 C14.73144,6.00039967 14.78504,5.75857567 14.90392,5.54711167 C15.0228,5.33564767 15.2016,5.16398367 15.41784,5.05367967 L16,4.75755967 L16,3.38107167 Z"/>
</svg>