<?xml version="1.0" encoding="UTF-8"?>
<svg xmlns="http://www.w3.org/2000/svg" xmlns:xlink="http://www.w3.org/1999/xlink" width="32pt" height="32pt" viewBox="0 0 32 32" version="1.1">
<g id="surface1">
<path style=" stroke:none;fill-rule:nonzero;fill:rgb(99.215686%,90.196078%,6.27451%);fill-opacity:1;" d="M 24.507812 14.773438 L 26.394531 8.65625 L 18.9375 8.65625 L 20.28125 6.535156 L 16.96875 8.65625 L 8.257812 8.65625 L 6.390625 14.773438 L 12.839844 14.773438 L 11.890625 17.941406 L 7.851562 23.816406 L 10.769531 21.605469 L 10.667969 21.988281 L 9.332031 25.957031 L 16.46875 25.957031 L 19.039062 15.332031 L 19.730469 14.800781 L 19.769531 14.773438 Z M 15.980469 1.203125 C 24.132812 1.203125 30.761719 7.832031 30.761719 15.980469 C 30.761719 24.128906 24.132812 30.757812 15.980469 30.757812 C 7.832031 30.757812 1.203125 24.128906 1.203125 15.980469 C 1.203125 7.832031 7.832031 1.203125 15.980469 1.203125 "/>
<path style=" stroke:none;fill-rule:nonzero;fill:rgb(99.215686%,90.196078%,6.27451%);fill-opacity:1;" d="M 25.1875 9.738281 L 23.847656 13.859375 L 21.332031 13.84375 L 17.578125 12.421875 L 19.230469 9.738281 Z M 25.1875 9.738281 "/>
<path style=" stroke:none;fill-rule:nonzero;fill:rgb(99.215686%,90.196078%,6.27451%);fill-opacity:1;" d="M 11.617188 12.886719 L 18.050781 8.769531 L 18.03125 8.800781 L 15.796875 12.3125 L 15.5625 12.6875 L 19.316406 14.261719 L 10.816406 20.703125 L 12.449219 18.328125 L 14.980469 14.648438 Z M 11.617188 12.886719 "/>
<path style=" stroke:none;fill-rule:nonzero;fill:rgb(99.215686%,90.196078%,6.27451%);fill-opacity:1;" d="M 17.488281 17.5 L 15.582031 24.761719 L 10.921875 24.761719 L 11.835938 21.898438 Z M 17.488281 17.5 "/>
<path style=" stroke:none;fill-rule:nonzero;fill:rgb(99.215686%,90.196078%,6.27451%);fill-opacity:1;" d="M 14.324219 9.753906 L 9.222656 13.007812 L 11.230469 13.859375 L 7.589844 13.835938 L 8.855469 9.738281 Z M 14.324219 9.753906 "/>
<path style=" stroke:none;fill-rule:nonzero;fill:rgb(13.72549%,12.156863%,12.54902%);fill-opacity:1;" d="M 10.769531 21.605469 L 7.851562 23.816406 L 11.890625 17.941406 L 12.449219 18.328125 L 10.816406 20.703125 L 19.316406 14.261719 L 19.730469 14.800781 L 19.039062 15.332031 L 16.46875 25.957031 L 9.332031 25.957031 L 10.667969 21.988281 Z M 15.582031 24.761719 L 17.488281 17.5 L 11.835938 21.898438 L 10.921875 24.761719 Z M 15.582031 24.761719 "/>
<path style=" stroke:none;fill-rule:nonzero;fill:rgb(13.72549%,12.156863%,12.54902%);fill-opacity:1;" d="M 8.855469 9.738281 L 7.589844 13.835938 L 11.230469 13.859375 L 9.222656 13.007812 L 14.324219 9.753906 Z M 6.390625 14.773438 L 8.257812 8.65625 L 16.96875 8.65625 L 20.28125 6.535156 L 18.9375 8.65625 L 26.394531 8.65625 L 24.507812 14.773438 L 19.769531 14.773438 L 19.730469 14.800781 L 19.316406 14.261719 L 15.5625 12.6875 L 15.796875 12.3125 L 18.03125 8.800781 L 18.050781 8.769531 L 11.617188 12.886719 L 14.980469 14.648438 L 12.449219 18.328125 L 11.890625 17.941406 L 12.839844 14.773438 Z M 25.1875 9.738281 L 19.230469 9.738281 L 17.578125 12.421875 L 21.332031 13.84375 L 23.847656 13.859375 Z M 25.1875 9.738281 "/>
<path style=" stroke:none;fill-rule:nonzero;fill:rgb(13.72549%,12.156863%,12.54902%);fill-opacity:1;" d="M 15.980469 1.203125 C 7.832031 1.203125 1.203125 7.832031 1.203125 15.980469 C 1.203125 24.128906 7.832031 30.757812 15.980469 30.757812 C 24.132812 30.757812 30.761719 24.128906 30.761719 15.980469 C 30.761719 7.832031 24.132812 1.203125 15.980469 1.203125 M -0.0390625 15.980469 C -0.0390625 7.148438 7.148438 -0.03125 15.980469 -0.03125 C 24.816406 -0.03125 32 7.148438 32 15.980469 C 32 24.8125 24.816406 32 15.980469 32 C 7.148438 32 -0.0390625 24.8125 -0.0390625 15.980469 "/>
</g>
</svg>
