<svg version="1.1" id="Ebene_1" xmlns="http://www.w3.org/2000/svg" xmlns:xlink="http://www.w3.org/1999/xlink" x="0px" y="0px"
	 viewBox="0 0 24 24" style="enable-background:new 0 0 24 24;" xml:space="preserve">
<style type="text/css">
	.st0{fill:#005B9F;}
</style>
<g id="LOGO_FINAL_2_">
	<polygon class="st0" points="12,12.1 15.7,10.7 15.9,10.6 16.7,9.1 13.9,10.2 12,11 12,11 8.7,9.7 7.3,9.1 8.1,10.6 8.2,10.7 	"/>
	<polygon class="st0" points="12,9.2 6.1,6.9 6.9,8.3 6.9,8.3 6.9,8.3 12,10.3 12,10.3 17.1,8.3 17.1,8.3 17.1,8.3 17.1,8.3 
		17.1,8.3 17.9,6.9 	"/>
	<polygon class="st0" points="12.3,17.1 13.1,16.8 13.9,12 12.3,12.7 	"/>
	<polygon class="st0" points="10.9,16.8 11.7,17.1 11.7,12.7 10.1,12 	"/>
</g>
</svg>
