<svg xmlns="http://www.w3.org/2000/svg" xmlns:xlink="http://www.w3.org/1999/xlink" width="16" height="16" viewBox="0 0 16 16"><path d="M1.7 6.74c0 1.63.01 2.85.03 3.02.05.56.15.98.35 1.36.15.3.23.41.45.63.4.4.91.65 1.67.8.26.05.35.05 1.08.05.72 0 .82 0 1.09-.06 1.12-.2 1.84-.74 2.2-1.62.08-.22.18-.61.24-1 .05-.36.05-.44.06-3.14L8.88 4H7.17l-.02 2.75c0 2.91 0 2.85-.13 3.3a2.2 2.2 0 0 1-.15.36c-.26.52-.7.72-1.57.72-1.06 0-1.52-.29-1.77-1.11-.04-.12-.08-.31-.1-.42a76.1 76.1 0 0 1-.03-2.9L3.39 4H1.7zM11.77 6.21c-.32.05-.63.17-.92.36l-.15.09v-.34H9.06v6.17h1.64V8.27l.06-.06c.13-.15.51-.43.72-.53.23-.1.24-.1.53-.11.28 0 .3 0 .43.06.16.08.25.19.33.4.04.12.05.23.05 2.3l.01 2.16h1.64v-2.27c-.01-2.25-.02-2.28-.07-2.5-.23-.9-.8-1.39-1.75-1.51a3.13 3.13 0 0 0-.88 0z"/></svg>
