<svg xmlns="http://www.w3.org/2000/svg" xmlns:xlink="http://www.w3.org/1999/xlink" width="16" height="16" viewBox="0 0 16 16"><path d="M3 8.154c0 1.351.008 2.358.021 2.495.045.47.132.812.29 1.131.124.244.192.337.376.52.335.331.755.53 1.38.654.215.042.289.046.891.046.598 0 .68-.004.904-.046.924-.172 1.522-.613 1.817-1.345.072-.18.15-.505.2-.821.044-.3.046-.371.052-2.604l.009-2.293H7.52l-.01 2.273c-.011 2.408-.009 2.358-.11 2.729-.02.072-.075.205-.122.296-.218.428-.585.597-1.3.597-.875.002-1.257-.238-1.465-.924a2.502 2.502 0 0 1-.076-.342c-.015-.1-.026-1.015-.032-2.396L4.397 5.89H3zM11.325 7.717a2.01 2.01 0 0 0-.759.294l-.123.077v-.28H9.086v5.101H10.443V9.421l.049-.053a2.57 2.57 0 0 1 .6-.435c.182-.085.191-.087.43-.093.236-.006.25-.004.363.05.13.065.202.153.267.329.039.105.04.193.047 1.902l.006 1.788h1.358l-.007-1.881c-.006-1.86-.008-1.882-.053-2.063-.19-.742-.661-1.15-1.448-1.25a2.59 2.59 0 0 0-.73.002z"/></svg>
