<svg version="1.1" id="Layer_1" xmlns="http://www.w3.org/2000/svg" xmlns:xlink="http://www.w3.org/1999/xlink" x="0px" y="0px"
	 viewBox="0 0 980 980" style="enable-background:new 0 0 180 180;" xml:space="preserve">
<path class="st1" fill="#708b96" d="M82.3,125.4V112C72.3,108.9,65,99.7,65,88.9c0-13.4,11.2-24.3,25-24.3s25,10.9,25,24.3c0,10.8-7.3,20-17.3,23.1
	l0,9.8l0,3.4l0,0.2h27.5v-9.9h-13.6c8.2-6.2,13.4-15.8,13.4-26.6C125,70.1,109.4,55,90,55S55,70.1,55,88.8
	c0,10.8,5.3,20.4,13.4,26.6H54.8v9.9L82.3,125.4z M90,160c-38.7,0-70-31.3-70-70H0c0,49.7,40.3,90,90,90V160z M160,90
	c0,38.7-31.3,70-70,70v20c49.7,0,90-40.3,90-90H160z M90,20c38.7,0,70,31.3,70,70h20c0-49.7-40.3-90-90-90V20z M90,0
	C40.3,0,0,40.3,0,90h20c0-38.7,31.3-70,70-70V0z"/>
</svg>