<svg width="24" height="24" viewBox="0 0 24 24" fill="none">
  <path fill="black"
    d="m 12.029642,11.933211 c 2.337638,0 4.274538,-0.400738 4.742065,-0.935055 -0.400737,-0.434133 -1.870109,-0.801476 -3.706825,-0.901661 v 1.135424 c -0.333948,0.0334 -0.667897,0.0334 -1.03524,0.0334 -0.367343,0 -0.701291,0 -1.035239,-0.0334 V 10.12989 c -1.8701109,0.100185 -3.3060884,0.434133 -3.7068264,0.901661 0.4675276,0.534317 2.4044276,0.90166 4.7420654,0.90166 z M 16.1706,6.7236173 V 8.259779 h -3.105718 v 1.0686349 c 2.170664,0.1001847 3.80701,0.5677117 3.840405,1.1354251 v 1.168819 c 0,0.567712 -1.636347,1.03524 -3.840405,1.135424 v 2.604796 H 10.994403 V 12.768082 C 8.8237386,12.634503 7.1873922,12.166975 7.1539973,11.599263 v -1.168819 c 0,-0.5677134 1.6363465,-1.0352404 3.8404057,-1.1354252 V 8.2263849 H 7.8886835 V 6.7236173 Z M 6.6530749,4.2857948 H 17.573183 c 0.267159,0 0.500923,0.1335793 0.634502,0.3673431 l 3.172509,5.4433571 c 0.166974,0.267159 0.100184,0.634502 -0.13358,0.868266 l -8.749444,8.549076 c -0.267159,0.267158 -0.734687,0.267158 -1.03524,0 L 2.7458801,10.964761 C 2.5121162,10.730997 2.4453266,10.363654 2.6456955,10.0631 L 6.051968,4.6197431 C 6.1855473,4.4193741 6.4193111,4.2857948 6.6530749,4.2857948 Z"
    fill-rule="evenodd" />
</svg>