<?xml version="1.0" encoding="UTF-8"?>
<svg width="64px" height="64px" viewBox="0 0 64 64" version="1.1" xmlns="http://www.w3.org/2000/svg" xmlns:xlink="http://www.w3.org/1999/xlink">
    <!-- Generator: Sketch 49.3 (51167) - http://www.bohemiancoding.com/sketch -->
    <title>64px</title>
    <desc>Created with Sketch.</desc>
    <defs></defs>
    <g id="64px" stroke="none" stroke-width="1" fill="none" fill-rule="evenodd">
        <path d="M39.513913,4.77310046 L39.513913,3.0432857 C39.513913,2.4502421 39.0195345,1.97303385 38.427031,2.00118465 C26.7971949,2.55356598 17.4773091,11.9248643 17.0084784,23.5747095 C17.033505,24.3048579 17.6244443,24.4959706 17.9720005,24.4959706 L19.7290726,24.4959706 C20.285079,24.4959706 20.740875,24.0595289 20.7697598,23.5043325 C21.2688308,13.9202349 28.9591757,6.23923602 38.5479926,5.75326974 C39.2792892,5.65932946 39.513913,5.25969231 39.513913,4.77310046 M23.6980743,24.4959706 L25.3795453,24.4959706 C25.9254369,24.4959706 26.3704923,24.0705807 26.4102219,23.5262275 C26.8855178,17.0148424 32.1072024,11.8209148 38.6312059,11.3881223 C38.9229737,11.3688338 39.513913,11.1504044 39.513913,10.3945032 L39.513913,8.68251726 C39.513913,8.07758776 39.0008688,7.60246475 38.3971034,7.64187588 C29.9572135,8.19258901 23.2081796,14.9407537 22.6572828,23.3794263 C22.6179702,23.9830004 23.0930575,24.4959706 23.6980743,24.4959706 M39.513913,14.3309239 L39.513913,16.0507295 C39.513913,16.7544996 38.9029525,17.0076483 38.604928,17.0436187 C35.1917242,17.4554546 32.4838519,20.1570976 32.0628845,23.5669941 C31.9977112,24.0948738 31.5583911,24.4959706 31.0264727,24.4959706 L29.3472957,24.4959706 C28.7349795,24.4959706 28.2474833,23.9702804 28.3084855,23.3610761 C28.8402996,18.0483939 33.0654063,13.8238966 38.3788549,13.2921592 C38.988147,13.2312701 39.513913,13.718696 39.513913,14.3309239 Z M59.2264998,39.4607085 C58.7398377,39.4607085 58.3401429,39.2261184 58.2461891,38.4949274 C57.7600484,28.9073892 50.0780458,21.2182578 40.4925657,20.7192588 C39.9372892,20.6903781 39.5006802,20.2346479 39.5006802,19.6787216 L39.5006802,17.9217987 C39.5006802,17.5742927 39.6918205,16.9834386 40.4220743,16.9585199 C52.0737043,17.4272829 61.4462501,26.7458245 61.9988154,38.3739832 C62.0269703,38.9664012 61.5495889,39.4607085 60.956564,39.4607085 L59.2264998,39.4607085 Z M39.5006802,23.6471509 C39.5006802,23.0422214 40.0137244,22.5670984 40.6174899,22.6065095 C49.0573798,23.1572226 55.8065179,29.9053873 56.3573105,38.3440599 C56.3967273,38.9477383 55.9215358,39.4607085 55.316519,39.4607085 L53.6041819,39.4607085 C52.8481716,39.4607085 52.629815,38.8698544 52.6104194,38.5781286 C52.1776687,32.0550661 46.9829919,26.8340304 40.4706675,26.3589074 C39.9261315,26.3191835 39.5006802,25.8741922 39.5006802,25.3283794 L39.5006802,23.6471509 Z M49.6672976,39.4607085 L47.9471396,39.4607085 C47.243268,39.4607085 46.9901871,38.8497318 46.9542114,38.5518545 C46.5423161,35.139143 43.8401791,32.431557 40.4297908,32.0107547 C39.9019392,31.9455908 39.5006802,31.506334 39.5006802,30.9744923 L39.5006802,29.2955575 C39.5006802,28.6833297 40.0264463,28.1959037 40.6357384,28.2567928 C45.9492913,28.7885302 50.174398,33.0130275 50.7061078,38.325814 C50.76711,38.9350183 50.2796137,39.4607085 49.6672976,39.4607085 Z M4.77350049,24.4914873 C5.26016253,24.4914873 5.65985733,24.7260773 5.75381116,25.4572684 C6.23995182,35.0447023 13.9219545,42.7339379 23.5074345,43.232937 C24.062711,43.2618176 24.49932,43.7175479 24.49932,44.2734741 L24.49932,46.0303971 C24.49932,46.3779031 24.3080755,46.9687572 23.577926,46.9936759 C11.9264002,46.5249128 2.55375011,37.2063712 2.00118482,25.5782126 C1.97302995,24.9857946 2.45030705,24.4914873 3.04354047,24.4914873 L4.77350049,24.4914873 Z M24.49932,40.3050449 C24.49932,40.9099744 23.9862758,41.3849931 23.3825104,41.3456863 C14.9426205,40.7948689 8.19348231,34.0468084 7.64268974,25.6081359 C7.60327293,25.0044575 8.07846448,24.4914873 8.68348123,24.4914873 L10.3958184,24.4914873 C11.1518286,24.4914873 11.3701853,25.0823414 11.3895808,25.3740671 C11.8223315,31.8971297 17.0170083,37.1181654 23.5293328,37.5932884 C24.0738687,37.6330123 24.49932,38.0780035 24.49932,38.6238163 L24.49932,40.3050449 Z M14.3327027,24.4914873 L16.0528606,24.4914873 C16.7567322,24.4914873 17.0098132,25.102464 17.0457888,25.4003412 C17.4577884,28.8130527 20.1598211,31.5205345 23.5702095,31.9414411 C24.098061,32.006605 24.49932,32.4458618 24.49932,32.9777035 L24.49932,34.6566383 C24.49932,35.2688661 23.973554,35.7562921 23.3642618,35.6954029 C18.050709,35.1635613 13.8256023,30.939064 13.2937882,25.6263817 C13.2328902,25.0171775 13.7203865,24.4914873 14.3327027,24.4914873 Z M24.503439,59.2268995 C24.503439,58.7403077 24.7380628,58.3406705 25.4693594,58.2467303 C35.0582806,57.760764 42.7485211,50.0797651 43.2475922,40.4956675 C43.276477,39.9404711 43.732273,39.5039252 44.2882794,39.5039252 L46.0453515,39.5039252 C46.3930119,39.5039252 46.983847,39.6951421 47.0088735,40.4251863 C46.5400429,52.0751357 37.2201571,61.4463298 25.590321,61.9988154 C24.9978175,62.0269662 24.503439,61.5497579 24.503439,60.95661 L24.503439,59.2268995 Z M40.3192777,39.5039252 C40.9242945,39.5039252 41.399486,40.0168954 41.3600692,40.6205737 C40.8092766,49.0592463 34.0601385,55.807411 25.6202486,56.3581241 C25.0164831,56.3975352 24.503439,55.9224122 24.503439,55.3174827 L24.503439,53.6053926 C24.503439,52.8494914 25.0943783,52.6311662 25.3861461,52.6117735 C31.9101496,52.1790852 37.1319385,46.9851576 37.60713,40.4737725 C37.6468597,39.9293151 38.0919151,39.5039252 38.6378066,39.5039252 L40.3192777,39.5039252 Z M24.503439,49.6690761 L24.503439,47.9491663 C24.503439,47.2453962 25.1145038,46.9923517 25.412424,46.9563813 C28.8256278,46.5445454 31.5336044,43.8427981 31.9544674,40.4329017 C32.0196407,39.9051262 32.4589609,39.5039252 32.9908793,39.5039252 L34.6700563,39.5039252 C35.2823724,39.5039252 35.7698687,40.0296153 35.7088665,40.6388196 C35.1771567,45.9516061 30.95205,50.1761034 25.6384971,50.7077365 C25.029205,50.7687299 24.503439,50.281304 24.503439,49.6690761 Z" id="rounded-logo-copy-5" fill="#FF5C00"></path>
    </g>
</svg>