<svg xmlns="http://www.w3.org/2000/svg" viewBox="0 0 283.4 283.5"><defs><style>.cls-1{fill:#30e6f9;}.cls-2{fill:#fff;fill-rule:evenodd;}</style></defs><g id="Layer_2" data-name="Layer 2"><g id="Ebene_1" data-name="Ebene 1"><path class="cls-1" d="M141.7,0A141.75,141.75,0,1,1,0,141.7,141.65,141.65,0,0,1,141.7,0Z"/><path class="cls-2" d="M54.1,135.2s0,22,87.6,22,87.6-22,87.6-22c0,22-20.7,68.3-33.5,76.2s-7.9-26.4-20.7-25.5-20.7,51.2-33.5,51.2-20.7-51.9-33.5-51.1-7.9,33.5-20.7,25.5C74.8,203.5,54.1,157.2,54.1,135.2Z"/><path class="cls-2" d="M74.8,135.2c0-7.1,29.9-12.9,66.9-12.9s66.9,5.8,66.9,12.9-33.5,12.9-66.9,12.9S74.8,142.3,74.8,135.2Z"/><path class="cls-2" d="M175.2,73.4A16.8,16.8,0,1,1,192,90.2,16.77,16.77,0,0,1,175.2,73.4Z"/></g></g></svg>
