<!-- Generator: Adobe Illustrator 25.2.3, SVG Export Plug-In . SVG Version: 6.00 Build 0)  -->
<svg version="1.1" id="Capa_1" xmlns="http://www.w3.org/2000/svg" xmlns:xlink="http://www.w3.org/1999/xlink" x="0px" y="0px"
	 viewBox="0 0 500 500" style="enable-background:new 0 0 500 500;" xml:space="preserve">
<style type="text/css">
	.st0{fill:#FFFFFF;}
	.st1{fill:#F2F2F2;}
	.st2{fill:#FF0029;}
</style>
<rect x="-10" y="-10" class="st2" width="520" height="520"/>
<g>
	<rect x="358.6" y="188.2" width="25" height="25"/>
	<rect x="258.6" y="188.2" width="75" height="25"/>
	<rect x="183.6" y="113.2" width="75" height="25"/>
	<rect x="258.6" y="288.2" width="125" height="25"/>
	<rect x="208.6" y="313.2" width="25" height="25"/>
	<rect x="133.6" y="113.2" width="25" height="25"/>
	<rect x="208.6" y="263.2" width="50" height="25"/>
	<rect x="158.6" y="263.2" width="25" height="25"/>
	<rect x="233.6" y="338.2" width="100" height="25"/>
	<rect x="133.6" y="363.2" width="100" height="25"/>
	<rect x="133.6" y="213.2" width="125" height="25"/>
	<rect x="158.6" y="163.2" width="75" height="25"/>
	<rect x="283.6" y="238.2" width="125" height="25"/>
	<rect x="258.6" y="138.2" width="75" height="25"/>
	<rect x="133.6" y="313.2" width="50" height="25"/>
</g>
</svg>
