<!-- Generator: Adobe Illustrator 25.2.1, SVG Export Plug-In . SVG Version: 6.00 Build 0)  -->
<svg version="1.1" id="Ebene_1" xmlns="http://www.w3.org/2000/svg" xmlns:xlink="http://www.w3.org/1999/xlink" x="0px" y="0px"
	 viewBox="0 0 283.5 283.5" style="enable-background:new 0 0 283.5 283.5;" xml:space="preserve">
<style type="text/css">
	.st0{fill:#8150E6;}
	.st1{fill:#3C176B;}
	.st2{fill:#6B42BD;}
	.st3{fill:#9B74EC;}
	.st4{fill:#FFFFFF;}
</style>
<circle class="st0" cx="141.7" cy="141.7" r="141.7"/>
<g id="defi_pulse_index_set">
	<g transform="translate(0.144928, 0.000000)">
		<path id="Fill-4" class="st1" d="M277.4,180l-100-98.8l-57-10.7L87,196.5l84.2,83.2C222.3,268.9,263.3,230.1,277.4,180"/>
		<path id="Fill-6" class="st2" d="M130,185.5v-77.9h19.6c6.6,0,12.7,0.8,18.2,2.5c5.5,1.7,10.3,4.3,14.3,7.8c0.6,0.5,1.1,1,1.6,1.5
			c0.1-10.6-3.7-21.1-9.1-30.6c-6-1.7-12.2-2.6-18.5-2.6h-47.6v99.1C115.7,185.5,122.8,186.1,130,185.5"/>
		<path id="Fill-8" class="st3" d="M212.4,123.2c-3.4-8.3-8-15.2-13.7-20.6c-5.7-5.5-12.2-9.6-19.6-12.2c-1.5-0.5-3-1-4.5-1.5
			c5.4,9.5,9.2,20.1,9.1,30.6c3.3,3.3,5.4,16.2,7.3,21.1l-61.1,56v-11c-7.2,0.6-14.3,0-21.5-0.1v32.4h45.1c7.3,0,14.7-1.3,22.3-4
			c7.6-2.7,14.5-6.7,20.7-12.1c6.2-5.4,11.3-12.3,15.2-20.5c3.9-8.3,5.9-18.1,5.9-29.4C217.5,140.5,215.8,131.4,212.4,123.2"/>
		<path id="Fill-10" class="st4" d="M124.5,175.2c6.7,0,13.1-0.8,19-2.5c6-1.7,11.2-4.3,15.6-7.8c4.4-3.5,7.9-8.2,10.5-13.8
			c2.6-5.7,3.8-12.5,3.8-20.6c0-8-1.1-14.2-3.4-19.9c-2.3-5.7-5.4-10.4-9.5-13.9c-4-3.5-8.8-6.2-14.3-7.8
			c-5.5-1.7-11.6-2.5-18.2-2.5h-19.6v89H124.5z M87,64.9h47.6c8,0,15.6,1.3,23,4c7.4,2.7,13.9,6.8,19.6,12.2
			c5.7,5.5,10.2,12.4,13.7,20.6c3.4,8.3,5.1,17.4,5.1,28.6c0,11.3-2,21.1-5.9,29.4c-3.9,8.3-9,15.1-15.2,20.5
			c-6.2,5.4-13.1,9.5-20.7,12.1c-7.6,2.7-15,4-22.3,4H87V64.9z"/>
	</g>
</g>
</svg>
