<!-- Generator: Adobe Illustrator 25.3.0, SVG Export Plug-In . SVG Version: 6.00 Build 0)  -->
<svg version="1.1" id="Ebene_1" xmlns="http://www.w3.org/2000/svg" xmlns:xlink="http://www.w3.org/1999/xlink" x="0px" y="0px"
	 viewBox="0 0 283.4646 283.4646" style="enable-background:new 0 0 283.4646 283.4646;" xml:space="preserve">
<style type="text/css">
	.st0{fill-rule:evenodd;clip-rule:evenodd;fill:#020203;}
</style>
<path class="st0" d="M141.4076,277.2255c75.146,0,136.063-60.6743,136.063-135.5188c0-74.845-60.917-135.5187-136.063-135.5187
	c-75.1455,0-136.063,60.6738-136.063,135.5187C5.3446,216.5512,66.2621,277.2255,141.4076,277.2255z M141.4076,230.7039
	c54.9575,0,99.5089-44.2608,99.5089-98.8601c0-54.5997-44.5514-77.1118-99.5089-77.1118c-54.9571,0-99.5087,22.5121-99.5087,77.1118
	C41.8989,186.4432,86.4505,230.7039,141.4076,230.7039z"/>
<path class="st0" d="M82.5146,147.7741c5.8329,0,11.1434-2.2271,15.122-5.8725c2.1661,3.8566,4.5178,7.9428,6.9648,12.0345
	c5.1989,8.695,10.963,17.6436,16.3815,24.5033c2.6919,3.4081,5.5002,6.5604,8.289,8.9355
	c2.4176,2.0594,6.3503,4.8972,11.1202,4.8972c4.7285,0,8.6841-2.7985,11.1321-4.8329c2.8334-2.3544,5.7179-5.4861,8.5045-8.8866
	c5.6069-6.8423,11.6263-15.7779,17.0797-24.4685c2.6897-4.2865,5.2749-8.5665,7.6435-12.5842
	c4.022,3.8838,9.5048,6.2742,15.5482,6.2742c12.3382,0,22.3394-9.9609,22.3394-22.249c0-12.2883-10.0012-22.2497-22.3394-22.2497
	c-10.0534,0-18.5568,6.6155-21.3597,15.7143c-0.5519,0.9927-1.1516,2.066-1.795,3.2067
	c-3.5964,6.3819-8.511,14.8603-13.8142,23.3125c-5.3348,8.5012-10.9297,16.7597-15.8889,22.8118
	c-2.497,3.0467-4.6338,5.2869-6.3264,6.6943c-0.2623,0.2177-0.492,0.3973-0.6912,0.5453c-0.1742-0.1339-0.3712-0.2928-0.5932-0.4822
	c-1.6262-1.3846-3.6802-3.6051-6.0804-6.6442c-4.7677-6.0347-10.11-14.279-15.1912-22.7769
	c-5.0511-8.4468-9.7123-16.9208-13.1188-23.2994c-0.4609-0.8632-0.8982-1.6872-1.3101-2.4666
	c-2.5045-9.5599-11.2333-16.6156-21.6165-16.6156c-12.3373,0-22.3387,9.9613-22.3387,22.2497
	C60.1758,137.8132,70.1772,147.7741,82.5146,147.7741z"/>
</svg>
